<svg width="500" height="513" viewBox="0 0 500 513" fill="none" xmlns="http://www.w3.org/2000/svg">
<line x1="194.576" y1="431.832" x2="437.332" y2="189.076" stroke="#2B6687" stroke-opacity="0.25" stroke-width="27" stroke-linecap="round"/>
<line x1="58.421" y1="405.487" x2="428.487" y2="35.4209" stroke="#2B6687" stroke-opacity="0.35" stroke-width="27" stroke-linecap="round"/>
<line x1="56.5759" y1="262.832" x2="299.332" y2="20.0758" stroke="#2B6687" stroke-opacity="0.3" stroke-width="27" stroke-linecap="round"/>
<path d="M420 254.5C420 264.165 412.165 272 402.5 272C392.835 272 385 264.165 385 254.5C385 244.835 392.835 237 402.5 237C412.165 237 420 244.835 420 254.5Z" fill="#2B6687" fill-opacity="0.15"/>
<path d="M335 68C335 72.9705 330.971 77 326 77C321.029 77 317 72.9705 317 68C317 63.0294 321.029 59 326 59C330.971 59 335 63.0294 335 68Z" fill="#2B6687" fill-opacity="0.2"/>
<path d="M113 187.5C113 205.449 98.4493 220 80.5 220C62.5507 220 48 205.449 48 187.5C48 169.551 62.5507 155 80.5 155C98.4493 155 113 169.551 113 187.5Z" fill="#2B6687" fill-opacity="0.2"/>
<path d="M142.883 334.684H108.583V276.774C108.576 270.179 110.47 263.722 114.039 258.176C117.608 252.63 122.701 248.23 128.706 245.504L152.144 234.871L160.033 254.651L178.327 251.221L177.183 254.651L181.814 259.281L171.467 334.684H142.883Z" fill="#184B67"/>
<path d="M205.766 203.201V226.068L194.333 237.501H182.9L171.467 226.068V203.201H205.766Z" fill="#D3B185"/>
<path d="M417.283 334.684V357.551H400.133H102.867H85.7166V334.684H108.583H142.883H171.466H205.766H234.35H268.65H417.283Z" fill="#A97C50"/>
<path d="M400.133 357.551H102.867V403.284H400.133V357.551Z" fill="#A97C50"/>
<g filter="url(#filter0_i)">
<path d="M234.35 335.684H205.766L195.419 260.281L200.05 255.651L198.906 252.221L217.2 255.651L225.089 235.871L248.527 246.504C254.532 249.23 259.625 253.63 263.194 259.176C266.763 264.722 268.657 271.179 268.65 277.774V335.684H234.35Z" fill="#184B67"/>
</g>
<path d="M251.5 146.034V168.901C251.5 170.417 250.897 171.871 249.825 172.943C248.753 174.015 247.299 174.618 245.783 174.618H228.633V140.318H245.783C247.299 140.318 248.753 140.92 249.825 141.992C250.897 143.064 251.5 144.518 251.5 146.034Z" fill="#C3E5E0"/>
<path d="M205.766 203.201V216.464C200.411 219.023 194.552 220.351 188.617 220.351C182.681 220.351 176.822 219.023 171.467 216.464V203.201H205.766Z" fill="#B99B73"/>
<g filter="url(#filter1_i)">
<path d="M225.432 146.034C223.03 146.029 220.69 145.27 218.741 143.865C216.793 142.46 215.334 140.48 214.57 138.202L211.483 128.884L200.793 136.888C192.88 142.832 183.25 146.042 173.353 146.034H148.6V168.901C148.6 179.514 152.816 189.692 160.32 197.197C167.825 204.702 178.003 208.918 188.616 208.918C199.23 208.918 209.408 204.702 216.913 197.197C224.417 189.692 228.633 179.514 228.633 168.901V146.034H225.432Z" fill="#D3B185"/>
</g>
<g filter="url(#filter2_i)">
<path d="M228.633 140.318V146.034H225.432C223.03 146.029 220.69 145.27 218.741 143.865C216.793 142.46 215.334 140.48 214.57 138.202L211.483 128.884L200.793 136.888C192.88 142.831 183.25 146.042 173.353 146.034H148.6V134.601C148.6 123.988 152.816 113.81 160.32 106.305C167.825 98.8004 178.003 94.5844 188.616 94.5844C199.23 94.5844 209.408 98.8004 216.913 106.305C224.417 113.81 228.633 123.988 228.633 134.601V140.318Z" fill="#402D29"/>
</g>
<g filter="url(#filter3_i)">
<path d="M205.767 226.068L225.089 234.871L217.2 254.651L198.907 251.221L194.333 237.501L205.767 226.068Z" fill="#2B6687"/>
</g>
<g filter="url(#filter4_i)">
<path d="M195.419 259.281L205.766 334.684H171.467L181.814 259.281L188.617 266.084L195.419 259.281Z" fill="#1A4E41"/>
</g>
<path d="M198.907 251.221L200.05 254.651L195.419 259.281L188.617 266.084L181.814 259.281L177.183 254.651L178.327 251.221L182.9 237.501H194.333L198.907 251.221Z" fill="#1A4E41"/>
<path d="M182.9 237.501L178.327 251.221L160.033 254.651L152.144 234.871L171.467 226.068L182.9 237.501Z" fill="#2B6687"/>
<path d="M148.6 168.901V174.618H131.45C129.934 174.618 128.48 174.015 127.408 172.943C126.336 171.871 125.733 170.417 125.733 168.901V146.034C125.733 144.518 126.336 143.064 127.408 141.992C128.48 140.92 129.934 140.318 131.45 140.318H148.6V168.901Z" fill="#C3E5E0"/>
<path d="M400.133 357.551H102.867V368.984H400.133V357.551Z" fill="#8B5E3C"/>
<path d="M417.283 328.966H274.366V276.773C274.354 269.089 272.139 261.57 267.985 255.106C263.831 248.642 257.912 243.504 250.928 240.3L211.483 222.407V208.459C216.388 205.615 220.728 201.894 224.288 197.483H234.35C238.894 197.469 243.248 195.658 246.462 192.445C249.675 189.231 251.486 184.877 251.5 180.333V178.732C253.228 177.734 254.665 176.302 255.668 174.577C256.67 172.852 257.204 170.895 257.216 168.899V146.033C257.207 143.003 256 140.1 253.858 137.958C251.715 135.816 248.813 134.608 245.783 134.599V123.166C245.783 108.005 239.76 93.464 229.039 82.7432C218.319 72.0224 203.778 65.9995 188.617 65.9995C173.455 65.9995 158.914 72.0224 148.194 82.7432C137.473 93.464 131.45 108.005 131.45 123.166V134.599C128.42 134.608 125.518 135.816 123.375 137.958C121.233 140.1 120.026 143.003 120.017 146.033V168.899C120.026 171.929 121.233 174.832 123.375 176.974C125.518 179.116 128.42 180.324 131.45 180.333H144.37C145.908 186.197 148.588 191.7 152.257 196.526C155.926 201.353 160.511 205.408 165.75 208.459V222.407L126.305 240.3C119.321 243.504 113.402 248.642 109.248 255.106C105.094 261.57 102.879 269.089 102.867 276.773V328.966H85.7167C84.2005 328.966 82.7465 329.568 81.6744 330.64C80.6023 331.712 80 333.166 80 334.682V357.549C80 359.065 80.6023 360.519 81.6744 361.591C82.7465 362.664 84.2005 363.266 85.7167 363.266H97.15V403.282C97.15 404.799 97.7523 406.253 98.8244 407.325C99.8964 408.397 101.35 408.999 102.867 408.999H400.133C401.649 408.999 403.103 408.397 404.175 407.325C405.247 406.253 405.85 404.799 405.85 403.282V363.266H417.283C418.799 363.266 420.253 362.664 421.325 361.591C422.397 360.519 423 359.065 423 357.549V334.682C423 333.166 422.397 331.712 421.325 330.64C420.253 329.568 418.799 328.966 417.283 328.966ZM222.516 256.764L228.176 242.53L246.183 250.705C251.178 252.99 255.411 256.662 258.381 261.283C261.35 265.904 262.93 271.28 262.933 276.773V328.966H240.066V283.233H228.633V328.966H210.74L201.479 261.338L204.109 258.708C204.275 258.509 204.427 258.299 204.566 258.079L216.171 260.252C216.51 260.318 216.854 260.356 217.2 260.366C218.345 260.367 219.464 260.024 220.412 259.382C221.359 258.74 222.093 257.828 222.516 256.764ZM217.771 237.785L213.656 248.189L203.251 246.246L200.85 239.043L207.024 232.926L217.771 237.785ZM222.916 139.63C221.562 138.987 220.515 137.837 220.001 136.429L216.914 127.053C216.617 126.201 216.124 125.43 215.475 124.803C214.826 124.176 214.039 123.711 213.177 123.444C212.314 123.177 211.402 123.116 210.512 123.266C209.622 123.417 208.78 123.774 208.053 124.309L197.363 132.313C190.428 137.492 182.009 140.299 173.353 140.316H154.317V134.599C154.317 125.503 157.93 116.778 164.363 110.346C170.795 103.913 179.52 100.299 188.617 100.299C197.713 100.299 206.438 103.913 212.87 110.346C219.303 116.778 222.916 125.503 222.916 134.599V139.63ZM234.35 186.049H230.977C231.725 184.185 232.355 182.276 232.863 180.333H240.066C240.066 181.849 239.464 183.303 238.392 184.375C237.32 185.447 235.866 186.049 234.35 186.049ZM245.783 168.899H234.35V146.033H245.783V168.899ZM142.883 168.899H131.45V146.033H142.883V168.899ZM142.883 134.599V123.166C142.883 111.037 147.702 99.4044 156.278 90.8278C164.855 82.2511 176.487 77.4328 188.617 77.4328C200.746 77.4328 212.378 82.2511 220.955 90.8278C229.532 99.4044 234.35 111.037 234.35 123.166V134.599C234.35 122.47 229.532 110.838 220.955 102.261C212.378 93.6845 200.746 88.8661 188.617 88.8661C176.487 88.8661 164.855 93.6845 156.278 102.261C147.702 110.838 142.883 122.47 142.883 134.599ZM154.317 168.899V151.749H173.353C184.483 151.736 195.311 148.127 204.223 141.459L208.568 138.201L209.197 140.03C210.19 143.031 211.999 145.696 214.423 147.726C216.846 149.756 219.788 151.07 222.916 151.521V168.899C222.91 174.924 221.313 180.84 218.286 186.049H188.617V197.483H207.539C202.373 200.911 196.375 202.873 190.182 203.162C183.989 203.45 177.834 202.053 172.373 199.12C166.911 196.187 162.347 191.827 159.168 186.505C155.988 181.183 154.311 175.099 154.317 168.899ZM185.987 271.056C186.778 271.542 187.688 271.799 188.617 271.799C189.545 271.799 190.455 271.542 191.246 271.056L199.192 328.966H178.041L185.987 271.056ZM183.7 253.106L187.016 243.216H190.217L193.533 253.106L188.617 258.022L183.7 253.106ZM191.989 231.783H185.244L177.183 223.722V213.146C184.677 215.128 192.556 215.128 200.05 213.146V223.722L191.989 231.783ZM170.209 232.926L176.383 239.043L173.982 246.246L163.578 248.189L159.462 237.785L170.209 232.926ZM114.3 276.773C114.303 271.28 115.883 265.904 118.853 261.283C121.822 256.662 126.055 252.99 131.05 250.705L149.057 242.53L154.717 256.764C155.14 257.828 155.874 258.74 156.822 259.382C157.769 260.024 158.888 260.367 160.033 260.366C160.379 260.356 160.723 260.318 161.062 260.252L172.667 258.079C172.806 258.299 172.958 258.509 173.124 258.708L175.754 261.338L166.493 328.966H148.6V283.233H137.167V328.966H114.3V276.773ZM394.416 397.566H108.583V363.266H394.416V397.566ZM411.566 351.832H91.4333V340.399H411.566V351.832Z" fill="black" fill-opacity="0.9"/>
<path d="M200.05 163.184C200.05 166.342 202.609 168.901 205.766 168.901C208.924 168.901 211.483 166.342 211.483 163.184C211.483 160.027 208.924 157.468 205.766 157.468C202.609 157.468 200.05 160.027 200.05 163.184Z" fill="black" fill-opacity="0.9"/>
<path d="M165.75 163.184C165.75 166.342 168.309 168.901 171.466 168.901C174.624 168.901 177.183 166.342 177.183 163.184C177.183 160.027 174.624 157.468 171.466 157.468C168.309 157.468 165.75 160.027 165.75 163.184Z" fill="black" fill-opacity="0.9"/>
<path d="M388 292L392.246 329.344H376.688L388 292Z" fill="#789C97"/>
<path d="M378.151 328.258L387.515 297.344L391.03 328.258H378.151Z" stroke="black" stroke-opacity="0.8" stroke-width="2.17089"/>
<g filter="url(#filter5_i)">
<path d="M287.32 291.715H388.628L384.286 329.344H280.445L287.32 291.715Z" fill="#C3E5E0"/>
</g>
<path d="M287.32 291.715H388.628L384.286 329.344H280.445L287.32 291.715Z" stroke="black" stroke-opacity="0.9" stroke-width="2"/>
<g style="mix-blend-mode:multiply">
<path d="M313.394 319.951H309.266V300.168H320.599V303.603H313.394V308.702H320.1V312.138H313.394V319.951ZM336.997 319.951L335.556 315.241H328.352L326.911 319.951H322.395L329.377 300.084H334.503L341.514 319.951H336.997ZM333.118 307.122C333.026 306.808 332.906 306.411 332.758 305.931C332.61 305.451 332.462 304.961 332.314 304.462C332.167 303.964 332.047 303.53 331.954 303.16C331.862 303.53 331.733 303.991 331.566 304.546C331.419 305.081 331.271 305.598 331.123 306.097C330.994 306.577 330.892 306.919 330.818 307.122L329.405 311.722H334.559L333.118 307.122ZM361.71 310.032C361.71 312.248 361.313 314.17 360.519 315.795C359.724 317.402 358.496 318.584 356.833 319.342L361.599 324.662H356.224L352.594 320.228H352.289C350.146 320.228 348.373 319.804 346.969 318.954C345.584 318.104 344.549 316.913 343.866 315.379C343.201 313.846 342.868 312.054 342.868 310.004C342.868 307.954 343.201 306.171 343.866 304.656C344.549 303.142 345.584 301.969 346.969 301.137C348.373 300.288 350.156 299.863 352.317 299.863C354.46 299.863 356.224 300.288 357.609 301.137C358.995 301.969 360.02 303.151 360.685 304.684C361.368 306.199 361.71 307.981 361.71 310.032ZM347.274 310.032C347.274 312.101 347.671 313.735 348.466 314.936C349.26 316.118 350.534 316.709 352.289 316.709C354.081 316.709 355.365 316.118 356.141 314.936C356.917 313.735 357.304 312.101 357.304 310.032C357.304 307.944 356.917 306.31 356.141 305.127C355.365 303.945 354.09 303.354 352.317 303.354C350.544 303.354 349.26 303.945 348.466 305.127C347.671 306.31 347.274 307.944 347.274 310.032Z" fill="#1A4E41"/>
</g>
<g filter="url(#filter6_i)">
<path d="M411.653 151.377C410.874 160.351 408.332 169.084 404.174 177.075C400.015 185.066 394.321 192.158 387.418 197.946C380.516 203.734 372.539 208.104 363.945 210.805C355.352 213.506 346.31 214.486 337.337 213.689C326.199 212.764 315.469 209.07 306.124 202.941L274.739 208.258L284.343 180.303C278.838 171.007 275.608 160.541 274.916 149.759C274.223 138.977 276.088 128.184 280.359 118.26C284.63 108.335 291.185 99.5608 299.491 92.6509C307.796 85.7411 317.617 80.8916 328.153 78.4977C338.689 76.1039 349.641 76.2335 360.117 78.876C370.593 81.5184 380.296 86.5989 388.436 93.7034C396.576 100.808 402.922 109.735 406.957 119.758C410.991 129.78 412.601 140.614 411.653 151.377Z" fill="#C3E5E0"/>
</g>
<g filter="url(#filter7_i)">
<path d="M270.349 211.928C270.992 212.682 271.82 213.258 272.752 213.598C273.683 213.939 274.687 214.033 275.665 213.872L304.912 208.967C314.628 214.833 325.556 218.404 336.862 219.405C339.076 219.6 341.279 219.697 343.471 219.697C357.606 219.672 371.442 215.616 383.354 208.005C395.266 200.394 404.76 189.543 410.722 176.726C416.684 163.909 418.868 149.657 417.015 135.643C415.163 121.629 409.353 108.434 400.266 97.6062C388.434 83.4687 371.768 74.2363 353.507 71.7042C335.247 69.172 316.697 73.5209 301.465 83.9055C286.233 94.29 275.407 109.968 271.092 127.891C266.776 145.814 269.281 164.702 278.118 180.881L269.314 206.371C268.99 207.308 268.915 208.312 269.097 209.286C269.278 210.261 269.709 211.171 270.349 211.928ZM280.696 139.898C282.149 123.284 290.142 107.928 302.916 97.2071C315.691 86.4863 332.202 81.2793 348.816 82.7314C357.07 83.4156 365.107 85.7235 372.467 89.5227C379.826 93.3219 386.363 98.5375 391.701 104.87C397.039 111.202 401.073 118.527 403.573 126.423C406.072 134.319 406.987 142.631 406.265 150.882C405.543 159.133 403.198 167.16 399.365 174.502C395.532 181.844 390.287 188.356 383.93 193.665C377.573 198.974 370.23 202.975 362.322 205.438C354.415 207.901 346.098 208.778 337.851 208.018C327.636 207.15 317.794 203.766 309.205 198.168C308.278 197.569 307.198 197.252 306.095 197.253C305.779 197.254 305.463 197.281 305.152 197.333L283.257 201.003L289.762 182.138C290.034 181.353 290.131 180.519 290.047 179.692C289.963 178.866 289.7 178.068 289.277 177.354C282.545 166.081 279.542 152.971 280.696 139.892V139.898Z" fill="#184B67"/>
</g>
<g filter="url(#filter8_i)">
<path d="M361.112 165.787V168.062C361.112 168.776 360.528 169.366 359.808 169.366H356.192C355.49 169.342 354.925 168.776 354.925 168.062V165.787C354.925 165.03 355.54 164.415 356.296 164.415H359.624C360.356 164.452 360.928 165.049 360.928 165.787H361.112ZM365.233 145.458C363.616 144.154 361.531 143.367 359.267 143.361H358.148C355.995 143.361 353.996 144.056 352.366 145.224L352.397 145.2C350.988 146.282 350.09 147.968 350.084 149.862C350.084 150.342 350.471 150.729 350.951 150.729H354.746C354.752 150.729 354.758 150.729 354.771 150.729C355.374 150.729 355.872 150.342 356.044 149.794V149.788C356.167 149.339 356.407 148.958 356.733 148.669C357.237 148.201 357.926 147.912 358.67 147.912C358.677 147.912 358.677 147.912 358.683 147.912H359.046C360.565 147.912 361.795 149.142 361.795 150.662C361.801 150.742 361.807 150.828 361.807 150.914C361.807 151 361.801 151.086 361.795 151.172V151.166V151.314C361.789 152.175 361.537 152.968 361.1 153.645L361.106 153.633C360.608 154.34 360.005 154.943 359.322 155.429L359.298 155.441C358.08 156.21 357.047 157.139 356.21 158.233L356.185 158.264C355.65 158.996 355.312 159.906 355.281 160.897V160.903C355.275 160.94 355.275 160.977 355.275 161.014C355.275 161.493 355.663 161.881 356.142 161.881C356.173 161.881 356.198 161.881 356.222 161.875H360.343C360.835 161.844 361.235 161.487 361.321 161.014V161.007C361.395 160.429 361.537 159.9 361.733 159.408L361.721 159.451C362.078 158.769 362.595 158.221 363.228 157.834L363.24 157.827C364.569 157.132 365.682 156.179 366.556 155.029L366.568 155.004C367.405 153.909 367.921 152.532 367.94 151.031V151.025C367.792 148.792 366.796 146.805 365.27 145.39L365.264 145.384L365.233 145.458ZM303.03 151.32C302.07 151.978 301.437 153.079 301.437 154.315V154.321C301.424 154.445 301.406 154.586 301.406 154.734C301.406 154.881 301.412 155.023 301.437 155.17V155.158C301.794 156.603 302.974 157.704 304.451 157.907H304.475C305.256 158.024 306.161 158.086 307.071 158.086C307.071 158.086 307.071 158.086 307.077 158.086H307.766C307.778 158.086 307.803 158.086 307.815 158.086C310.854 158.086 313.732 157.403 316.303 156.191L316.18 156.241C317.57 156.985 319.194 157.674 320.898 158.209L321.101 158.264H321.316V156.856C321.322 155.244 321.47 153.663 321.735 152.132L321.71 152.298V152.476C320.025 151.843 318.61 151.166 317.244 150.41L317.404 150.49L315.885 149.659L314.513 150.49C313.154 151.32 311.555 151.923 309.851 152.181L309.777 152.187C310.552 151.148 311.21 149.954 311.696 148.675L311.733 148.577L312.275 146.947L311.155 145.716C307.575 142.038 305.361 137.013 305.33 131.477V131.471C305.33 118.85 317.337 108.51 331.945 108.51C332.203 108.504 332.517 108.498 332.825 108.498C343.133 108.498 352.077 114.304 356.579 122.835L356.653 122.983C357.379 122.983 358.172 122.983 359.003 122.983H359.507C360.559 122.983 361.604 122.983 362.724 122.983C357.865 111.093 346.387 102.864 332.984 102.864C332.683 102.864 332.382 102.87 332.086 102.876H332.129C314.372 102.876 299.911 115.713 299.911 131.483C299.911 131.496 299.911 131.52 299.911 131.539C299.911 137.868 302.181 143.662 305.952 148.158L305.915 148.115C305.201 149.438 304.192 150.526 302.987 151.314L302.95 151.338L303.03 151.32ZM391.485 156.382C391.43 162.847 389.086 168.751 385.23 173.352L385.267 173.309C385.974 174.632 386.964 175.708 388.17 176.508L388.201 176.532C389.154 177.184 389.787 178.267 389.794 179.497C389.806 179.62 389.824 179.761 389.824 179.909C389.824 180.057 389.818 180.198 389.794 180.346V180.333C389.437 181.779 388.256 182.88 386.78 183.083H386.755C385.974 183.2 385.07 183.261 384.153 183.261H383.538C383.514 183.261 383.495 183.261 383.471 183.261C380.34 183.261 377.381 182.535 374.743 181.256L374.859 181.305C370.197 183.698 364.686 185.1 358.836 185.1C358.8 185.1 358.756 185.1 358.72 185.1H358.726C340.642 185.1 326.182 172.079 326.182 156.173C326.182 140.267 340.901 127.245 358.726 127.245C376.551 127.245 391.27 140.23 391.27 156.173L391.485 156.382ZM385.882 156.382C385.882 143.545 373.801 133.095 358.904 133.095C344.007 133.095 331.927 143.545 331.927 156.382C331.927 169.219 344.007 179.632 358.904 179.632C358.947 179.632 358.99 179.632 359.039 179.632C364.464 179.632 369.557 178.199 373.943 175.683L373.795 175.763L375.167 174.896L376.539 175.763C377.966 176.594 379.632 177.196 381.422 177.455L381.496 177.461C380.715 176.421 380.057 175.228 379.577 173.949L379.54 173.85L378.962 172.257L380.118 171.027C383.643 167.238 385.826 162.158 385.906 156.579V156.567L385.882 156.382Z" fill="#1A4E41"/>
</g>
<defs>
<filter id="filter0_i" x="188.419" y="235.871" width="80.2304" height="105.813" filterUnits="userSpaceOnUse" color-interpolation-filters="sRGB">
<feFlood flood-opacity="0" result="BackgroundImageFix"/>
<feBlend mode="normal" in="SourceGraphic" in2="BackgroundImageFix" result="shape"/>
<feColorMatrix in="SourceAlpha" type="matrix" values="0 0 0 0 0 0 0 0 0 0 0 0 0 0 0 0 0 0 127 0" result="hardAlpha"/>
<feOffset dx="-7" dy="6"/>
<feGaussianBlur stdDeviation="7.5"/>
<feComposite in2="hardAlpha" operator="arithmetic" k2="-1" k3="1"/>
<feColorMatrix type="matrix" values="0 0 0 0 0.319395 0 0 0 0 0.597547 0 0 0 0 0.754008 0 0 0 1 0"/>
<feBlend mode="normal" in2="shape" result="effect1_innerShadow"/>
</filter>
<filter id="filter1_i" x="139.6" y="128.884" width="89.0332" height="86.0332" filterUnits="userSpaceOnUse" color-interpolation-filters="sRGB">
<feFlood flood-opacity="0" result="BackgroundImageFix"/>
<feBlend mode="normal" in="SourceGraphic" in2="BackgroundImageFix" result="shape"/>
<feColorMatrix in="SourceAlpha" type="matrix" values="0 0 0 0 0 0 0 0 0 0 0 0 0 0 0 0 0 0 127 0" result="hardAlpha"/>
<feOffset dx="-9" dy="6"/>
<feGaussianBlur stdDeviation="12.5"/>
<feComposite in2="hardAlpha" operator="arithmetic" k2="-1" k3="1"/>
<feColorMatrix type="matrix" values="0 0 0 0 0.954916 0 0 0 0 1 0 0 0 0 0.77458 0 0 0 1 0"/>
<feBlend mode="normal" in2="shape" result="effect1_innerShadow"/>
</filter>
<filter id="filter2_i" x="143.6" y="94.5844" width="85.0332" height="57.4499" filterUnits="userSpaceOnUse" color-interpolation-filters="sRGB">
<feFlood flood-opacity="0" result="BackgroundImageFix"/>
<feBlend mode="normal" in="SourceGraphic" in2="BackgroundImageFix" result="shape"/>
<feColorMatrix in="SourceAlpha" type="matrix" values="0 0 0 0 0 0 0 0 0 0 0 0 0 0 0 0 0 0 127 0" result="hardAlpha"/>
<feOffset dx="-5" dy="6"/>
<feGaussianBlur stdDeviation="6"/>
<feComposite in2="hardAlpha" operator="arithmetic" k2="-1" k3="1"/>
<feColorMatrix type="matrix" values="0 0 0 0 0.724971 0 0 0 0 0.606607 0 0 0 0 0.452132 0 0 0 1 0"/>
<feBlend mode="normal" in2="shape" result="effect1_innerShadow"/>
</filter>
<filter id="filter3_i" x="189.333" y="226.068" width="35.7556" height="36.5833" filterUnits="userSpaceOnUse" color-interpolation-filters="sRGB">
<feFlood flood-opacity="0" result="BackgroundImageFix"/>
<feBlend mode="normal" in="SourceGraphic" in2="BackgroundImageFix" result="shape"/>
<feColorMatrix in="SourceAlpha" type="matrix" values="0 0 0 0 0 0 0 0 0 0 0 0 0 0 0 0 0 0 127 0" result="hardAlpha"/>
<feOffset dx="-5" dy="8"/>
<feGaussianBlur stdDeviation="5"/>
<feComposite in2="hardAlpha" operator="arithmetic" k2="-1" k3="1"/>
<feColorMatrix type="matrix" values="0 0 0 0 0.254902 0 0 0 0 0.509804 0 0 0 0 0.65098 0 0 0 1 0"/>
<feBlend mode="normal" in2="shape" result="effect1_innerShadow"/>
</filter>
<filter id="filter4_i" x="168.467" y="259.281" width="37.3" height="78.4027" filterUnits="userSpaceOnUse" color-interpolation-filters="sRGB">
<feFlood flood-opacity="0" result="BackgroundImageFix"/>
<feBlend mode="normal" in="SourceGraphic" in2="BackgroundImageFix" result="shape"/>
<feColorMatrix in="SourceAlpha" type="matrix" values="0 0 0 0 0 0 0 0 0 0 0 0 0 0 0 0 0 0 127 0" result="hardAlpha"/>
<feOffset dx="-3" dy="3"/>
<feGaussianBlur stdDeviation="7.5"/>
<feComposite in2="hardAlpha" operator="arithmetic" k2="-1" k3="1"/>
<feColorMatrix type="matrix" values="0 0 0 0 0.470588 0 0 0 0 0.658824 0 0 0 0 0.627451 0 0 0 1 0"/>
<feBlend mode="normal" in2="shape" result="effect1_innerShadow"/>
</filter>
<filter id="filter5_i" x="274.246" y="290.715" width="115.504" height="49.6287" filterUnits="userSpaceOnUse" color-interpolation-filters="sRGB">
<feFlood flood-opacity="0" result="BackgroundImageFix"/>
<feBlend mode="normal" in="SourceGraphic" in2="BackgroundImageFix" result="shape"/>
<feColorMatrix in="SourceAlpha" type="matrix" values="0 0 0 0 0 0 0 0 0 0 0 0 0 0 0 0 0 0 127 0" result="hardAlpha"/>
<feOffset dx="-5" dy="10"/>
<feGaussianBlur stdDeviation="7.5"/>
<feComposite in2="hardAlpha" operator="arithmetic" k2="-1" k3="1"/>
<feColorMatrix type="matrix" values="0 0 0 0 1 0 0 0 0 1 0 0 0 0 1 0 0 0 1 0"/>
<feBlend mode="normal" in2="shape" result="effect1_innerShadow"/>
</filter>
<filter id="filter6_i" x="266.739" y="76.7935" width="145.178" height="159.164" filterUnits="userSpaceOnUse" color-interpolation-filters="sRGB">
<feFlood flood-opacity="0" result="BackgroundImageFix"/>
<feBlend mode="normal" in="SourceGraphic" in2="BackgroundImageFix" result="shape"/>
<feColorMatrix in="SourceAlpha" type="matrix" values="0 0 0 0 0 0 0 0 0 0 0 0 0 0 0 0 0 0 127 0" result="hardAlpha"/>
<feOffset dx="-8" dy="22"/>
<feGaussianBlur stdDeviation="11"/>
<feComposite in2="hardAlpha" operator="arithmetic" k2="-1" k3="1"/>
<feColorMatrix type="matrix" values="0 0 0 0 1 0 0 0 0 1 0 0 0 0 1 0 0 0 0.85 0"/>
<feBlend mode="normal" in2="shape" result="effect1_innerShadow"/>
</filter>
<filter id="filter7_i" x="269" y="70.9999" width="148.656" height="152.697" filterUnits="userSpaceOnUse" color-interpolation-filters="sRGB">
<feFlood flood-opacity="0" result="BackgroundImageFix"/>
<feBlend mode="normal" in="SourceGraphic" in2="BackgroundImageFix" result="shape"/>
<feColorMatrix in="SourceAlpha" type="matrix" values="0 0 0 0 0 0 0 0 0 0 0 0 0 0 0 0 0 0 127 0" result="hardAlpha"/>
<feOffset dy="4"/>
<feGaussianBlur stdDeviation="2"/>
<feComposite in2="hardAlpha" operator="arithmetic" k2="-1" k3="1"/>
<feColorMatrix type="matrix" values="0 0 0 0 0 0 0 0 0 0 0 0 0 0 0 0 0 0 0.25 0"/>
<feBlend mode="normal" in2="shape" result="effect1_innerShadow"/>
</filter>
<filter id="filter8_i" x="296.498" y="94.8797" width="98.4135" height="102.413" filterUnits="userSpaceOnUse" color-interpolation-filters="sRGB">
<feFlood flood-opacity="0" result="BackgroundImageFix"/>
<feBlend mode="normal" in="SourceGraphic" in2="BackgroundImageFix" result="shape"/>
<feColorMatrix in="SourceAlpha" type="matrix" values="0 0 0 0 0 0 0 0 0 0 0 0 0 0 0 0 0 0 127 0" result="hardAlpha"/>
<feOffset dy="4"/>
<feGaussianBlur stdDeviation="2"/>
<feComposite in2="hardAlpha" operator="arithmetic" k2="-1" k3="1"/>
<feColorMatrix type="matrix" values="0 0 0 0 0 0 0 0 0 0 0 0 0 0 0 0 0 0 0.25 0"/>
<feBlend mode="normal" in2="shape" result="effect1_innerShadow"/>
</filter>
</defs>
</svg>
