<svg width="500" height="510" viewBox="0 0 500 510" fill="none" xmlns="http://www.w3.org/2000/svg">
<path d="M142.883 307.684H108.583V249.774C108.576 243.179 110.47 236.722 114.039 231.176C117.608 225.63 122.701 221.23 128.706 218.504L152.144 207.871L160.033 227.651L178.327 224.221L177.183 227.651L181.814 232.281L171.467 307.684H142.883Z" fill="#184B67"/>
<path d="M205.766 176.201V199.068L194.333 210.501H182.9L171.467 199.068V176.201H205.766Z" fill="#D3B185"/>
<path d="M417.283 307.684V330.551H400.133H102.867H85.7166V307.684H108.583H142.883H171.466H205.766H234.35H268.65H417.283Z" fill="#A97C50"/>
<path d="M400.133 330.551H102.867V376.284H400.133V330.551Z" fill="#A97C50"/>
<path d="M234.35 307.684H205.766L195.419 232.281L200.05 227.651L198.906 224.221L217.2 227.651L225.089 207.871L248.527 218.504C254.532 221.23 259.625 225.63 263.194 231.176C266.763 236.722 268.657 243.179 268.65 249.774V307.684H234.35Z" fill="#184B67"/>
<path d="M251.5 119.034V141.901C251.5 143.417 250.897 144.871 249.825 145.943C248.753 147.015 247.299 147.618 245.783 147.618H228.633V113.318H245.783C247.299 113.318 248.753 113.92 249.825 114.992C250.897 116.064 251.5 117.518 251.5 119.034Z" fill="#C3E5E0"/>
<path d="M205.766 176.201V189.464C200.411 192.023 194.552 193.351 188.617 193.351C182.681 193.351 176.822 192.023 171.467 189.464V176.201H205.766Z" fill="#B99B73"/>
<path d="M225.432 119.034C223.03 119.029 220.69 118.27 218.741 116.865C216.793 115.46 215.334 113.48 214.57 111.203L211.483 101.884L200.793 109.888C192.88 115.832 183.25 119.042 173.353 119.034H148.6V141.901C148.6 152.514 152.816 162.692 160.32 170.197C167.825 177.702 178.003 181.918 188.616 181.918C199.23 181.918 209.408 177.702 216.913 170.197C224.417 162.692 228.633 152.514 228.633 141.901V119.034H225.432Z" fill="#D3B185"/>
<path d="M228.633 113.318V119.034H225.432C223.03 119.029 220.69 118.27 218.741 116.865C216.793 115.46 215.334 113.48 214.57 111.203L211.483 101.884L200.793 109.888C192.88 115.832 183.25 119.042 173.353 119.034H148.6V107.601C148.6 96.988 152.816 86.8096 160.32 79.305C167.825 71.8004 178.003 67.5844 188.616 67.5844C199.23 67.5844 209.408 71.8004 216.913 79.305C224.417 86.8096 228.633 96.988 228.633 107.601V113.318Z" fill="#402D29"/>
<path d="M205.767 199.068L225.089 207.871L217.2 227.651L198.907 224.221L194.333 210.501L205.767 199.068Z" fill="#2B6687"/>
<path d="M195.419 232.281L205.766 307.684H171.467L181.814 232.281L188.617 239.084L195.419 232.281Z" fill="#1A4E41"/>
<path d="M198.907 224.221L200.05 227.651L195.419 232.281L188.617 239.084L181.814 232.281L177.183 227.651L178.327 224.221L182.9 210.501H194.333L198.907 224.221Z" fill="#1A4E41"/>
<path d="M182.9 210.501L178.327 224.221L160.033 227.651L152.144 207.871L171.467 199.068L182.9 210.501Z" fill="#2B6687"/>
<path d="M148.6 141.901V147.618H131.45C129.934 147.618 128.48 147.015 127.408 145.943C126.336 144.871 125.733 143.417 125.733 141.901V119.034C125.733 117.518 126.336 116.064 127.408 114.992C128.48 113.92 129.934 113.318 131.45 113.318H148.6V141.901Z" fill="#C3E5E0"/>
<path d="M400.133 330.551H102.867V341.984H400.133V330.551Z" fill="#8B5E3C"/>
<path d="M417.283 301.966H274.366V249.773C274.354 242.089 272.139 234.57 267.985 228.106C263.831 221.642 257.912 216.504 250.928 213.301L211.483 195.407V181.459C216.388 178.615 220.728 174.894 224.288 170.483H234.35C238.894 170.469 243.248 168.658 246.462 165.445C249.675 162.231 251.486 157.877 251.5 153.333V151.732C253.228 150.734 254.665 149.302 255.668 147.577C256.67 145.852 257.204 143.895 257.216 141.899V119.033C257.207 116.003 256 113.1 253.858 110.958C251.715 108.816 248.813 107.609 245.783 107.599V96.1662C245.783 81.0046 239.76 66.4641 229.039 55.7433C218.319 45.0225 203.778 38.9996 188.617 38.9996C173.455 38.9996 158.914 45.0225 148.194 55.7433C137.473 66.4641 131.45 81.0046 131.45 96.1662V107.599C128.42 107.609 125.518 108.816 123.375 110.958C121.233 113.1 120.026 116.003 120.017 119.033V141.899C120.026 144.929 121.233 147.832 123.375 149.974C125.518 152.116 128.42 153.324 131.45 153.333H144.37C145.908 159.197 148.588 164.7 152.257 169.526C155.926 174.353 160.511 178.408 165.75 181.459V195.407L126.305 213.301C119.321 216.504 113.402 221.642 109.248 228.106C105.094 234.57 102.879 242.089 102.867 249.773V301.966H85.7167C84.2005 301.966 82.7465 302.568 81.6744 303.64C80.6023 304.712 80 306.166 80 307.683V330.549C80 332.065 80.6023 333.519 81.6744 334.591C82.7465 335.664 84.2005 336.266 85.7167 336.266H97.15V376.282C97.15 377.799 97.7523 379.253 98.8244 380.325C99.8964 381.397 101.35 381.999 102.867 381.999H400.133C401.649 381.999 403.103 381.397 404.175 380.325C405.247 379.253 405.85 377.799 405.85 376.282V336.266H417.283C418.799 336.266 420.253 335.664 421.325 334.591C422.397 333.519 423 332.065 423 330.549V307.683C423 306.166 422.397 304.712 421.325 303.64C420.253 302.568 418.799 301.966 417.283 301.966ZM222.516 229.764L228.176 215.53L246.183 223.705C251.178 225.99 255.411 229.662 258.381 234.283C261.35 238.904 262.93 244.28 262.933 249.773V301.966H240.066V256.233H228.633V301.966H210.74L201.479 234.338L204.109 231.708C204.275 231.509 204.427 231.299 204.566 231.079L216.171 233.252C216.51 233.318 216.854 233.356 217.2 233.366C218.345 233.367 219.464 233.024 220.412 232.382C221.359 231.74 222.093 230.828 222.516 229.764ZM217.771 210.785L213.656 221.189L203.251 219.246L200.85 212.043L207.024 205.926L217.771 210.785ZM222.916 112.63C221.562 111.987 220.515 110.837 220.001 109.429L216.914 100.053C216.617 99.2011 216.124 98.4304 215.475 97.8034C214.826 97.1764 214.039 96.7106 213.177 96.4436C212.314 96.1766 211.402 96.1159 210.512 96.2663C209.622 96.4167 208.78 96.774 208.053 97.3095L197.363 105.313C190.428 110.492 182.009 113.299 173.353 113.316H154.317V107.599C154.317 98.5026 157.93 89.7782 164.363 83.3458C170.795 76.9133 179.52 73.2995 188.617 73.2995C197.713 73.2995 206.438 76.9133 212.87 83.3458C219.303 89.7782 222.916 98.5026 222.916 107.599V112.63ZM234.35 159.049H230.977C231.725 157.185 232.355 155.276 232.863 153.333H240.066C240.066 154.849 239.464 156.303 238.392 157.375C237.32 158.447 235.866 159.049 234.35 159.049ZM245.783 141.899H234.35V119.033H245.783V141.899ZM142.883 141.899H131.45V119.033H142.883V141.899ZM142.883 107.599V96.1662C142.883 84.0369 147.702 72.4045 156.278 63.8279C164.855 55.2512 176.487 50.4329 188.617 50.4329C200.746 50.4329 212.378 55.2512 220.955 63.8279C229.532 72.4045 234.35 84.0369 234.35 96.1662V107.599C234.35 95.4703 229.532 83.8378 220.955 75.2612C212.378 66.6845 200.746 61.8662 188.617 61.8662C176.487 61.8662 164.855 66.6845 156.278 75.2612C147.702 83.8378 142.883 95.4703 142.883 107.599ZM154.317 141.899V124.749H173.353C184.483 124.736 195.311 121.127 204.223 114.459L208.568 111.201L209.197 113.03C210.19 116.031 211.999 118.696 214.423 120.726C216.846 122.756 219.788 124.07 222.916 124.521V141.899C222.91 147.924 221.313 153.84 218.286 159.049H188.617V170.483H207.539C202.373 173.911 196.375 175.874 190.182 176.162C183.989 176.45 177.834 175.053 172.373 172.12C166.911 169.187 162.347 164.827 159.168 159.505C155.988 154.184 154.311 148.099 154.317 141.899ZM185.987 244.056C186.778 244.542 187.688 244.799 188.617 244.799C189.545 244.799 190.455 244.542 191.246 244.056L199.192 301.966H178.041L185.987 244.056ZM183.7 226.106L187.016 216.216H190.217L193.533 226.106L188.617 231.022L183.7 226.106ZM191.989 204.783H185.244L177.183 196.722V186.146C184.677 188.128 192.556 188.128 200.05 186.146V196.722L191.989 204.783ZM170.209 205.926L176.383 212.043L173.982 219.246L163.578 221.189L159.462 210.785L170.209 205.926ZM114.3 249.773C114.303 244.28 115.883 238.904 118.853 234.283C121.822 229.662 126.055 225.99 131.05 223.705L149.057 215.53L154.717 229.764C155.14 230.828 155.874 231.74 156.822 232.382C157.769 233.024 158.888 233.367 160.033 233.366C160.379 233.356 160.723 233.318 161.062 233.252L172.667 231.079C172.806 231.299 172.958 231.509 173.124 231.708L175.754 234.338L166.493 301.966H148.6V256.233H137.167V301.966H114.3V249.773ZM394.416 370.566H108.583V336.266H394.416V370.566ZM411.566 324.833H91.4333V313.399H411.566V324.833Z" fill="black" fill-opacity="0.9"/>
<path d="M211.483 130.468H200.05V141.901H211.483V130.468Z" fill="black" fill-opacity="0.9"/>
<path d="M177.183 130.468H165.75V141.901H177.183V130.468Z" fill="black" fill-opacity="0.9"/>
<path d="M388 265L392.246 302.344H376.688L388 265Z" fill="#789C97"/>
<path d="M378.151 301.258L387.515 270.344L391.03 301.258H378.151Z" stroke="black" stroke-opacity="0.8" stroke-width="2.17089"/>
<path d="M287.32 264.715H388.628L384.286 302.344H280.445L287.32 264.715Z" fill="#C3E5E0"/>
<path d="M282.181 300.897L288.526 266.162H387.004L382.996 300.897H282.181Z" stroke="black" stroke-opacity="0.9" stroke-width="2.89451"/>
<g style="mix-blend-mode:multiply">
<path d="M313.394 292.951H309.266V273.168H320.599V276.604H313.394V281.702H320.1V285.138H313.394V292.951ZM336.997 292.951L335.556 288.241H328.352L326.911 292.951H322.395L329.377 273.085H334.503L341.514 292.951H336.997ZM333.118 280.122C333.026 279.808 332.906 279.411 332.758 278.931C332.61 278.451 332.462 277.961 332.314 277.462C332.167 276.964 332.047 276.53 331.954 276.16C331.862 276.53 331.733 276.991 331.566 277.546C331.419 278.081 331.271 278.599 331.123 279.097C330.994 279.578 330.892 279.919 330.818 280.122L329.405 284.722H334.559L333.118 280.122ZM361.71 283.032C361.71 285.248 361.313 287.17 360.519 288.795C359.724 290.402 358.496 291.584 356.833 292.342L361.599 297.662H356.224L352.594 293.228H352.289C350.146 293.228 348.373 292.804 346.969 291.954C345.584 291.104 344.549 289.913 343.866 288.38C343.201 286.846 342.868 285.055 342.868 283.004C342.868 280.954 343.201 279.171 343.866 277.656C344.549 276.142 345.584 274.969 346.969 274.137C348.373 273.288 350.156 272.863 352.317 272.863C354.46 272.863 356.224 273.288 357.609 274.137C358.995 274.969 360.02 276.151 360.685 277.684C361.368 279.199 361.71 280.981 361.71 283.032ZM347.274 283.032C347.274 285.101 347.671 286.736 348.466 287.936C349.26 289.118 350.534 289.71 352.289 289.71C354.081 289.71 355.365 289.118 356.141 287.936C356.917 286.736 357.304 285.101 357.304 283.032C357.304 280.944 356.917 279.31 356.141 278.127C355.365 276.945 354.09 276.354 352.317 276.354C350.544 276.354 349.26 276.945 348.466 278.127C347.671 279.31 347.274 280.944 347.274 283.032Z" fill="#1A4E41"/>
</g>
<path d="M411.653 124.377C410.874 133.352 408.332 142.084 404.174 150.075C400.015 158.066 394.321 165.158 387.418 170.946C380.516 176.734 372.539 181.104 363.945 183.805C355.352 186.506 346.31 187.486 337.337 186.689C326.199 185.764 315.469 182.07 306.124 175.941L274.739 181.258L284.343 153.303C278.838 144.007 275.608 133.541 274.916 122.759C274.223 111.977 276.088 101.184 280.359 91.2598C284.63 81.3355 291.185 72.5609 299.491 65.651C307.796 58.7411 317.617 53.8916 328.153 51.4978C338.689 49.104 349.641 49.2336 360.117 51.876C370.593 54.5185 380.296 59.599 388.436 66.7035C396.576 73.8079 402.922 82.7353 406.957 92.7578C410.991 102.78 412.601 113.615 411.653 124.377Z" fill="#C3E5E0"/>
<g filter="url(#filter0_i)">
<path d="M270.349 184.928C270.992 185.683 271.82 186.258 272.752 186.598C273.683 186.939 274.687 187.033 275.665 186.872L304.912 181.967C314.628 187.833 325.556 191.404 336.862 192.405C339.076 192.6 341.279 192.697 343.471 192.697C357.606 192.672 371.442 188.616 383.354 181.005C395.266 173.394 404.76 162.543 410.722 149.726C416.684 136.909 418.868 122.657 417.015 108.643C415.163 94.6294 409.353 81.4343 400.266 70.6063C388.434 56.4688 371.768 47.2364 353.507 44.7042C335.247 42.172 316.697 46.521 301.465 56.9056C286.233 67.2901 275.407 82.9681 271.092 100.891C266.776 118.814 269.281 137.702 278.118 153.881L269.314 179.371C268.99 180.308 268.915 181.312 269.097 182.287C269.278 183.261 269.709 184.171 270.349 184.928ZM280.696 112.898C282.149 96.2842 290.142 80.9279 302.916 70.2071C315.691 59.4864 332.202 54.2793 348.816 55.7315C357.07 56.4157 365.107 58.7236 372.467 62.5228C379.826 66.3219 386.363 71.5375 391.701 77.87C397.039 84.2025 401.073 91.5271 403.573 99.4232C406.072 107.319 406.987 115.631 406.265 123.882C405.543 132.133 403.198 140.16 399.365 147.502C395.532 154.844 390.287 161.356 383.93 166.665C377.573 171.974 370.23 175.975 362.322 178.438C354.415 180.901 346.098 181.778 337.851 181.018C327.636 180.15 317.794 176.766 309.205 171.168C308.278 170.569 307.198 170.252 306.095 170.253C305.779 170.254 305.463 170.281 305.152 170.333L283.257 174.003L289.762 155.138C290.034 154.354 290.131 153.519 290.047 152.692C289.963 151.866 289.7 151.068 289.277 150.354C282.545 139.081 279.542 125.971 280.696 112.892V112.898Z" fill="#184B67"/>
</g>
<g filter="url(#filter1_i)">
<path d="M361.112 138.787V141.063C361.112 141.776 360.528 142.367 359.808 142.367H356.192C355.49 142.342 354.925 141.776 354.925 141.063V138.787C354.925 138.03 355.54 137.415 356.296 137.415H359.624C360.356 137.452 360.928 138.049 360.928 138.787H361.112ZM365.233 118.458C363.616 117.154 361.531 116.367 359.267 116.361H358.148C355.995 116.361 353.996 117.056 352.366 118.224L352.397 118.2C350.988 119.282 350.09 120.968 350.084 122.862C350.084 123.342 350.471 123.729 350.951 123.729H354.746C354.752 123.729 354.758 123.729 354.771 123.729C355.374 123.729 355.872 123.342 356.044 122.795V122.788C356.167 122.339 356.407 121.958 356.733 121.669C357.237 121.201 357.926 120.912 358.67 120.912C358.677 120.912 358.677 120.912 358.683 120.912H359.046C360.565 120.912 361.795 122.143 361.795 123.662C361.801 123.742 361.807 123.828 361.807 123.914C361.807 124 361.801 124.086 361.795 124.172V124.166V124.314C361.789 125.175 361.537 125.968 361.1 126.645L361.106 126.633C360.608 127.34 360.005 127.943 359.322 128.429L359.298 128.441C358.08 129.21 357.047 130.139 356.21 131.233L356.185 131.264C355.65 131.996 355.312 132.907 355.281 133.897V133.903C355.275 133.94 355.275 133.977 355.275 134.014C355.275 134.493 355.663 134.881 356.142 134.881C356.173 134.881 356.198 134.881 356.222 134.875H360.343C360.835 134.844 361.235 134.487 361.321 134.014V134.008C361.395 133.429 361.537 132.9 361.733 132.408L361.721 132.451C362.078 131.769 362.595 131.221 363.228 130.834L363.24 130.828C364.569 130.132 365.682 129.179 366.556 128.029L366.568 128.004C367.405 126.909 367.921 125.532 367.94 124.031V124.025C367.792 121.792 366.796 119.805 365.27 118.391L365.264 118.384L365.233 118.458ZM303.03 124.32C302.07 124.978 301.437 126.079 301.437 127.315V127.322C301.424 127.445 301.406 127.586 301.406 127.734C301.406 127.881 301.412 128.023 301.437 128.17V128.158C301.794 129.604 302.974 130.705 304.451 130.907H304.475C305.256 131.024 306.161 131.086 307.071 131.086C307.071 131.086 307.071 131.086 307.077 131.086H307.766C307.778 131.086 307.803 131.086 307.815 131.086C310.854 131.086 313.732 130.403 316.303 129.191L316.18 129.241C317.57 129.985 319.194 130.674 320.898 131.209L321.101 131.264H321.316V129.856C321.322 128.244 321.47 126.663 321.735 125.132L321.71 125.298V125.476C320.025 124.843 318.61 124.166 317.244 123.41L317.404 123.49L315.885 122.659L314.513 123.49C313.154 124.32 311.555 124.923 309.851 125.181L309.777 125.187C310.552 124.148 311.21 122.954 311.696 121.675L311.733 121.577L312.275 119.947L311.155 118.717C307.575 115.038 305.361 110.013 305.33 104.477V104.471C305.33 91.8496 317.337 81.5101 331.945 81.5101C332.203 81.5039 332.517 81.4978 332.825 81.4978C343.133 81.4978 352.077 87.3042 356.579 95.8354L356.653 95.983C357.379 95.983 358.172 95.983 359.003 95.983H359.507C360.559 95.983 361.604 95.983 362.724 95.983C357.865 84.0934 346.387 75.8636 332.984 75.8636C332.683 75.8636 332.382 75.8698 332.086 75.8759H332.129C314.372 75.8759 299.911 88.7127 299.911 104.483C299.911 104.496 299.911 104.52 299.911 104.539C299.911 110.868 302.181 116.662 305.952 121.158L305.915 121.115C305.201 122.438 304.192 123.526 302.987 124.314L302.95 124.338L303.03 124.32ZM391.485 129.382C391.43 135.847 389.086 141.751 385.23 146.352L385.267 146.309C385.974 147.632 386.964 148.708 388.17 149.508L388.201 149.532C389.154 150.184 389.787 151.267 389.794 152.497C389.806 152.62 389.824 152.761 389.824 152.909C389.824 153.057 389.818 153.198 389.794 153.346V153.333C389.437 154.779 388.256 155.88 386.78 156.083H386.755C385.974 156.2 385.07 156.261 384.153 156.261H383.538C383.514 156.261 383.495 156.261 383.471 156.261C380.34 156.261 377.381 155.535 374.743 154.256L374.859 154.305C370.197 156.698 364.686 158.1 358.836 158.1C358.8 158.1 358.756 158.1 358.72 158.1H358.726C340.642 158.1 326.182 145.079 326.182 129.173C326.182 113.267 340.901 100.246 358.726 100.246C376.551 100.246 391.27 113.23 391.27 129.173L391.485 129.382ZM385.882 129.382C385.882 116.545 373.801 106.095 358.904 106.095C344.007 106.095 331.927 116.545 331.927 129.382C331.927 142.219 344.007 152.632 358.904 152.632C358.947 152.632 358.99 152.632 359.039 152.632C364.464 152.632 369.557 151.199 373.943 148.683L373.795 148.763L375.167 147.896L376.539 148.763C377.966 149.594 379.632 150.197 381.422 150.455L381.496 150.461C380.715 149.422 380.057 148.228 379.577 146.949L379.54 146.85L378.962 145.257L380.118 144.027C383.643 140.238 385.826 135.158 385.906 129.579V129.567L385.882 129.382Z" fill="#1A4E41"/>
</g>
<defs>
<filter id="filter0_i" x="269" y="44" width="148.656" height="152.697" filterUnits="userSpaceOnUse" color-interpolation-filters="sRGB">
<feFlood flood-opacity="0" result="BackgroundImageFix"/>
<feBlend mode="normal" in="SourceGraphic" in2="BackgroundImageFix" result="shape"/>
<feColorMatrix in="SourceAlpha" type="matrix" values="0 0 0 0 0 0 0 0 0 0 0 0 0 0 0 0 0 0 127 0" result="hardAlpha"/>
<feOffset dy="4"/>
<feGaussianBlur stdDeviation="2"/>
<feComposite in2="hardAlpha" operator="arithmetic" k2="-1" k3="1"/>
<feColorMatrix type="matrix" values="0 0 0 0 0 0 0 0 0 0 0 0 0 0 0 0 0 0 0.25 0"/>
<feBlend mode="normal" in2="shape" result="effect1_innerShadow"/>
</filter>
<filter id="filter1_i" x="296.498" y="67.8798" width="98.4135" height="102.413" filterUnits="userSpaceOnUse" color-interpolation-filters="sRGB">
<feFlood flood-opacity="0" result="BackgroundImageFix"/>
<feBlend mode="normal" in="SourceGraphic" in2="BackgroundImageFix" result="shape"/>
<feColorMatrix in="SourceAlpha" type="matrix" values="0 0 0 0 0 0 0 0 0 0 0 0 0 0 0 0 0 0 127 0" result="hardAlpha"/>
<feOffset dy="4"/>
<feGaussianBlur stdDeviation="2"/>
<feComposite in2="hardAlpha" operator="arithmetic" k2="-1" k3="1"/>
<feColorMatrix type="matrix" values="0 0 0 0 0 0 0 0 0 0 0 0 0 0 0 0 0 0 0.25 0"/>
<feBlend mode="normal" in2="shape" result="effect1_innerShadow"/>
</filter>
</defs>
</svg>
