<svg width="401" height="149" viewBox="0 0 401 149" fill="none" xmlns="http://www.w3.org/2000/svg">
<g filter="url(#filter0_i)">
<path d="M101.866 14H394.624L377.5 66L394.624 122.739H82L101.866 14Z" fill="#C3E5E0"/>
</g>
<path d="M101.866 14H394.624L377.5 66L394.624 122.739H82L101.866 14Z" stroke="#184B67" stroke-width="8.36452"/>
<g style="mix-blend-mode:multiply" filter="url(#filter1_i)">
<path d="M192.217 94.9113H180.286V37.7407H213.035V47.6695H192.217V62.4025H211.594V72.3313H192.217V94.9113ZM260.423 94.9113L256.259 81.2992H235.441L231.277 94.9113H218.226L238.404 37.5005H253.217L273.475 94.9113H260.423ZM249.213 57.8385C248.946 56.931 248.599 55.7833 248.172 54.3954C247.745 53.0075 247.318 51.5929 246.891 50.1517C246.464 48.7104 246.117 47.4559 245.85 46.3883C245.583 47.4559 245.21 48.7905 244.729 50.3919C244.302 51.9399 243.875 53.4346 243.448 54.8758C243.074 56.2637 242.781 57.2513 242.567 57.8385L238.484 71.1302H253.377L249.213 57.8385ZM331.838 66.2459C331.838 72.6516 330.69 78.2031 328.395 82.9006C326.1 87.5447 322.55 90.9611 317.746 93.1497L331.518 108.523H315.984L305.495 95.712H304.614C298.422 95.712 293.297 94.4842 289.24 92.0287C285.237 89.5732 282.248 86.1302 280.273 81.6996C278.351 77.269 277.39 72.0911 277.39 66.1658C277.39 60.2406 278.351 55.0894 280.273 50.7122C282.248 46.3349 285.237 42.9453 289.24 40.5432C293.297 38.0877 298.449 36.8599 304.694 36.8599C310.886 36.8599 315.984 38.0877 319.988 40.5432C323.991 42.9453 326.954 46.3616 328.876 50.7922C330.851 55.1694 331.838 60.3207 331.838 66.2459ZM290.121 66.2459C290.121 72.2245 291.269 76.9487 293.564 80.4184C295.86 83.8348 299.543 85.543 304.614 85.543C309.792 85.543 313.502 83.8348 315.744 80.4184C317.986 76.9487 319.107 72.2245 319.107 66.2459C319.107 60.2139 317.986 55.4897 315.744 52.0734C313.502 48.657 309.819 46.9488 304.694 46.9488C299.57 46.9488 295.86 48.657 293.564 52.0734C291.269 55.4897 290.121 60.2139 290.121 66.2459Z" fill="#1A4E41"/>
</g>
<path d="M6.00282 80.3771C6.78227 89.3515 9.32401 98.0842 13.4825 106.075C17.6411 114.066 23.3347 121.158 30.2376 126.946C37.1405 132.734 45.1171 137.104 53.7108 139.805C62.3045 142.506 71.3465 143.486 80.3194 142.689C91.457 141.764 102.187 138.07 111.532 131.941L142.917 137.258L133.313 109.303C138.818 100.007 142.048 89.541 142.74 78.7591C143.433 67.9771 141.568 57.1841 137.297 47.2598C133.026 37.3355 126.471 28.5609 118.165 21.651C109.86 14.7411 100.039 9.89163 89.503 7.49781C78.9674 5.10399 68.0152 5.23358 57.5391 7.87603C47.0631 10.5185 37.3597 15.599 29.2198 22.7035C21.08 29.8079 14.7341 38.7353 10.6995 48.7578C6.66479 58.7804 5.05553 69.6145 6.00282 80.3771Z" fill="#C3E5E0"/>
<g filter="url(#filter2_i)">
<path d="M147.307 140.928C146.664 141.683 145.836 142.258 144.905 142.598C143.973 142.939 142.969 143.033 141.991 142.872L112.744 137.967C103.028 143.833 92.1 147.404 80.794 148.405C78.5798 148.6 76.377 148.697 74.1856 148.697C60.0497 148.672 46.2141 144.616 34.3023 137.005C22.3904 129.394 12.8963 118.543 6.93404 105.726C0.971741 92.909 -1.21143 78.6575 0.640671 64.6434C2.49278 50.6294 8.30333 37.4343 17.3905 26.6063C29.2222 12.4688 45.8885 3.2364 64.149 0.704217C82.4095 -1.82796 100.959 2.52101 116.191 12.9056C131.423 23.2901 142.25 38.9681 146.565 56.8912C150.88 74.8143 148.375 93.7016 139.538 109.881L148.342 135.371C148.666 136.308 148.741 137.312 148.559 138.287C148.378 139.261 147.947 140.171 147.307 140.928ZM136.96 68.8981C135.507 52.2842 127.514 36.9279 114.74 26.2071C101.965 15.4864 85.4544 10.2793 68.8405 11.7315C60.5865 12.4157 52.549 14.7236 45.1896 18.5228C37.8301 22.3219 31.2936 27.5375 25.9554 33.87C20.6173 40.2025 16.5827 47.5271 14.0833 55.4232C11.5839 63.3194 10.669 71.6315 11.3911 79.8822C12.1132 88.1329 14.458 96.1597 18.291 103.502C22.1239 110.844 27.3695 117.356 33.7264 122.665C40.0834 127.974 47.4264 131.975 55.334 134.438C63.2415 136.901 71.5577 137.778 79.805 137.018C90.0206 136.15 99.8623 132.766 108.451 127.168C109.378 126.569 110.458 126.252 111.561 126.253C111.877 126.254 112.193 126.281 112.504 126.333L134.399 130.003L127.894 111.138C127.622 110.354 127.525 109.519 127.609 108.692C127.693 107.866 127.956 107.068 128.38 106.354C135.111 95.0808 138.114 81.9713 136.96 68.8924V68.8981Z" fill="#184B67"/>
</g>
<g filter="url(#filter3_i)">
<path d="M92.1123 94.7867V97.0625C92.1123 97.776 91.5279 98.3665 90.8083 98.3665H87.1916C86.4904 98.3419 85.9245 97.776 85.9245 97.0625V94.7867C85.9245 94.0302 86.5396 93.4151 87.2962 93.4151H90.6238C91.3557 93.452 91.9277 94.0486 91.9277 94.7867H92.1123ZM96.2333 74.4582C94.6157 73.1542 92.5305 72.3669 90.267 72.3607H89.1476C86.9948 72.3607 84.9957 73.0558 83.3658 74.2244L83.3965 74.1998C81.988 75.2824 81.09 76.9677 81.0838 78.8622C81.0838 79.3419 81.4713 79.7294 81.9511 79.7294H85.7462C85.7523 79.7294 85.7584 79.7294 85.7708 79.7294C86.3735 79.7294 86.8718 79.3419 87.044 78.7945V78.7884C87.167 78.3394 87.4069 77.958 87.7329 77.6689C88.2372 77.2015 88.9261 76.9124 89.6704 76.9124C89.6765 76.9124 89.6765 76.9124 89.6827 76.9124H90.0456C91.5648 76.9124 92.795 78.1425 92.795 79.6618C92.8012 79.7418 92.8073 79.8279 92.8073 79.914C92.8073 80.0001 92.8012 80.0862 92.795 80.1723V80.1662V80.3138C92.7889 81.1749 92.5367 81.9684 92.1 82.6449L92.1061 82.6326C91.6079 83.34 91.0051 83.9428 90.3224 84.4287L90.2978 84.441C89.0799 85.2098 88.0466 86.1386 87.2101 87.2335L87.1854 87.2642C86.6503 87.9962 86.312 88.9065 86.2813 89.8968V89.9029C86.2751 89.9398 86.2751 89.9767 86.2751 90.0137C86.2751 90.4934 86.6626 90.8809 87.1424 90.8809C87.1731 90.8809 87.1978 90.8809 87.2224 90.8748H91.3434C91.8355 90.844 92.2353 90.4873 92.3214 90.0137V90.0075C92.3952 89.4293 92.5367 88.9004 92.7335 88.4083L92.7212 88.4513C93.078 87.7686 93.5946 87.2212 94.2282 86.8337L94.2405 86.8275C95.569 86.1325 96.6824 85.1791 97.5558 84.0289L97.5681 84.0043C98.4046 82.9094 98.9213 81.5316 98.9397 80.0308V80.0247C98.7921 77.7919 97.7956 75.8052 96.2702 74.3905L96.2641 74.3844L96.2333 74.4582ZM34.0299 80.3199C33.0703 80.9781 32.4368 82.0791 32.4368 83.3154V83.3215C32.4245 83.4446 32.406 83.586 32.406 83.7336C32.406 83.8813 32.4122 84.0227 32.4368 84.1704V84.1581C32.7935 85.6035 33.9745 86.7045 35.4507 86.9075H35.4753C36.2565 87.0243 37.1606 87.0859 38.071 87.0859C38.071 87.0859 38.071 87.0859 38.0771 87.0859H38.766C38.7783 87.0859 38.8029 87.0859 38.8152 87.0859C41.8537 87.0859 44.7323 86.4031 47.3034 85.1914L47.1804 85.2406C48.5705 85.9849 50.1943 86.6737 51.8981 87.2089L52.101 87.2642H52.3163V85.8557C52.3225 84.2442 52.4701 82.6634 52.7346 81.1318L52.71 81.2979V81.4763C51.0246 80.8428 49.6099 80.1662 48.2445 79.4096L48.4044 79.4896L46.8851 78.6592L45.5135 79.4896C44.1541 80.3199 42.5549 80.9227 40.8511 81.181L40.7773 81.1872C41.5523 80.1477 42.2105 78.9544 42.6964 77.6751L42.7333 77.5767L43.2746 75.9467L42.1551 74.7165C38.5753 71.0383 36.361 66.0131 36.3303 60.4773V60.4712C36.3303 47.8496 48.3367 37.5101 62.945 37.5101C63.2033 37.5039 63.517 37.4978 63.8245 37.4978C74.1334 37.4978 83.0767 43.3042 87.5791 51.8354L87.6529 51.983C88.3787 51.983 89.1722 51.983 90.0025 51.983H90.5069C91.5587 51.983 92.6043 51.983 93.7238 51.983C88.8646 40.0934 77.3872 31.8636 63.9845 31.8636C63.6831 31.8636 63.3817 31.8697 63.0864 31.8759H63.1295C45.372 31.8759 30.9114 44.7127 30.9114 60.4835C30.9114 60.4958 30.9114 60.5204 30.9114 60.5388C30.9114 66.868 33.181 72.6621 36.9515 77.1584L36.9146 77.1153C36.2011 78.4378 35.1924 79.5265 33.9868 80.3138L33.9499 80.3384L34.0299 80.3199ZM122.485 85.3821C122.43 91.8466 120.086 97.7514 116.23 102.352L116.267 102.309C116.974 103.632 117.964 104.708 119.17 105.508L119.201 105.532C120.154 106.184 120.788 107.267 120.794 108.497C120.806 108.62 120.824 108.761 120.824 108.909C120.824 109.057 120.818 109.198 120.794 109.346V109.333C120.437 110.779 119.256 111.88 117.78 112.083H117.755C116.974 112.2 116.07 112.261 115.153 112.261H114.538C114.514 112.261 114.495 112.261 114.471 112.261C111.34 112.261 108.381 111.535 105.743 110.256L105.859 110.305C101.197 112.698 95.6859 114.1 89.8365 114.1C89.7996 114.1 89.7565 114.1 89.7196 114.1H89.7257C71.6423 114.1 57.1816 101.079 57.1816 85.1729C57.1816 69.2669 71.9006 56.2455 89.7257 56.2455C107.551 56.2455 122.27 69.23 122.27 85.1729L122.485 85.3821ZM116.882 85.3821C116.882 72.5453 104.801 62.095 89.9041 62.095C75.0068 62.095 62.9265 72.5453 62.9265 85.3821C62.9265 98.2189 75.0068 108.632 89.9041 108.632C89.9472 108.632 89.9902 108.632 90.0394 108.632C95.4645 108.632 100.557 107.199 104.943 104.683L104.795 104.763L106.167 103.896L107.539 104.763C108.966 105.594 110.632 106.197 112.422 106.455L112.496 106.461C111.715 105.422 111.057 104.228 110.577 102.949L110.54 102.85L109.962 101.257L111.118 100.027C114.643 96.2383 116.826 91.1577 116.906 85.5789V85.5666L116.882 85.3821Z" fill="#1A4E41"/>
</g>
<defs>
<filter id="filter0_i" x="76.9844" y="9.81775" width="323.42" height="117.103" filterUnits="userSpaceOnUse" color-interpolation-filters="sRGB">
<feFlood flood-opacity="0" result="BackgroundImageFix"/>
<feBlend mode="normal" in="SourceGraphic" in2="BackgroundImageFix" result="shape"/>
<feColorMatrix in="SourceAlpha" type="matrix" values="0 0 0 0 0 0 0 0 0 0 0 0 0 0 0 0 0 0 127 0" result="hardAlpha"/>
<feOffset dy="-60"/>
<feComposite in2="hardAlpha" operator="arithmetic" k2="-1" k3="1"/>
<feColorMatrix type="matrix" values="0 0 0 0 1 0 0 0 0 1 0 0 0 0 1 0 0 0 0.43 0"/>
<feBlend mode="normal" in2="shape" result="effect1_innerShadow"/>
</filter>
<filter id="filter1_i" x="180.286" y="36.8599" width="151.552" height="75.6634" filterUnits="userSpaceOnUse" color-interpolation-filters="sRGB">
<feFlood flood-opacity="0" result="BackgroundImageFix"/>
<feBlend mode="normal" in="SourceGraphic" in2="BackgroundImageFix" result="shape"/>
<feColorMatrix in="SourceAlpha" type="matrix" values="0 0 0 0 0 0 0 0 0 0 0 0 0 0 0 0 0 0 127 0" result="hardAlpha"/>
<feOffset dy="4"/>
<feGaussianBlur stdDeviation="2"/>
<feComposite in2="hardAlpha" operator="arithmetic" k2="-1" k3="1"/>
<feColorMatrix type="matrix" values="0 0 0 0 0 0 0 0 0 0 0 0 0 0 0 0 0 0 0.25 0"/>
<feBlend mode="normal" in2="shape" result="effect1_innerShadow"/>
</filter>
<filter id="filter2_i" x="-1.52588e-05" y="0" width="148.656" height="152.697" filterUnits="userSpaceOnUse" color-interpolation-filters="sRGB">
<feFlood flood-opacity="0" result="BackgroundImageFix"/>
<feBlend mode="normal" in="SourceGraphic" in2="BackgroundImageFix" result="shape"/>
<feColorMatrix in="SourceAlpha" type="matrix" values="0 0 0 0 0 0 0 0 0 0 0 0 0 0 0 0 0 0 127 0" result="hardAlpha"/>
<feOffset dy="4"/>
<feGaussianBlur stdDeviation="2"/>
<feComposite in2="hardAlpha" operator="arithmetic" k2="-1" k3="1"/>
<feColorMatrix type="matrix" values="0 0 0 0 0 0 0 0 0 0 0 0 0 0 0 0 0 0 0.25 0"/>
<feBlend mode="normal" in2="shape" result="effect1_innerShadow"/>
</filter>
<filter id="filter3_i" x="27.4979" y="23.8798" width="98.4135" height="102.413" filterUnits="userSpaceOnUse" color-interpolation-filters="sRGB">
<feFlood flood-opacity="0" result="BackgroundImageFix"/>
<feBlend mode="normal" in="SourceGraphic" in2="BackgroundImageFix" result="shape"/>
<feColorMatrix in="SourceAlpha" type="matrix" values="0 0 0 0 0 0 0 0 0 0 0 0 0 0 0 0 0 0 127 0" result="hardAlpha"/>
<feOffset dy="4"/>
<feGaussianBlur stdDeviation="2"/>
<feComposite in2="hardAlpha" operator="arithmetic" k2="-1" k3="1"/>
<feColorMatrix type="matrix" values="0 0 0 0 0 0 0 0 0 0 0 0 0 0 0 0 0 0 0.25 0"/>
<feBlend mode="normal" in2="shape" result="effect1_innerShadow"/>
</filter>
</defs>
</svg>
